#!OML:ASF I:\golf\golf\golf 2\Subject 1\2002-09-07\Subject1.ASF
:FULLY-SPECIFIED
:DEGREES
327
root -1.42455 16.016 -3.15142 105.444 30.2061 37.7714
lowerback -0.527208 1.95697 9.90486
upperback 8.03112 1.71229 11.0438
thorax 8.91418 1.12223 6.58411
lowerneck -11.9609 -11.2924 -0.756244
upperneck -3.12989 -15.3157 -0.00590498
head 1.01617 -7.80736 -0.554265
rclavicle -6.67916e-014 -4.6118e-014
rhumerus 54.1968 -22.0734 -41.2416
rradius 23.9034
rwrist 1.82071
rhand -44.207 19.3216
rfingers 7.12502
rthumb -17.0205 -9.95272
lclavicle -6.67916e-014 -4.6118e-014
lhumerus -36.3058 -40.6229 108.341
lradius 78.4423
lwrist -0.301686
lhand -42.6807 24.402
lfingers 7.12502
lthumb -15.5508 53.7967
rfemur -129.842 -27.0979 23.6047
rtibia 58.2357
rfoot -9.97544 -8.77455
rtoes 11.577
lfemur -99.8111 -16.839 -14.9114
ltibia 31.0954
lfoot 7.0917 -29.8815
ltoes 14.4557
328
root -1.42218 16.0113 -3.1578 105.407 30.1238 37.692
lowerback -0.579343 1.99816 9.83662
upperback 8.02041 1.76054 11.0357
thorax 8.92808 1.14027 6.61876
lowerneck -11.9955 -11.3242 -0.739716
upperneck -3.11916 -15.3613 -0.0514167
head 1.02022 -7.83169 -0.574696
rclavicle 3.49861e-014 -6.20208e-014
rhumerus 54.2151 -22.0529 -41.0273
rradius 23.7774
rwrist 1.53001
rhand -44.208 19.1583
rfingers 7.12502
rthumb -17.0214 -10.116
lclavicle 3.49861e-014 -6.20208e-014
lhumerus -36.2841 -40.6861 108.348
lradius 78.4361
lwrist -0.405187
lhand -42.6249 24.4291
lfingers 7.12502
lthumb -15.4971 53.8281
rfemur -129.851 -27.091 23.525
rtibia 58.1575
rfoot -9.78835 -8.74099
rtoes 10.3466
lfemur -99.9642 -16.8662 -14.5612
ltibia 31.1723
lfoot 6.80946 -29.5048
ltoes 14.6441
329
root -1.41974 16.0031 -3.16527 105.408 29.9945 37.6027
lowerback -0.68013 2.05252 9.71398
upperback 7.98639 1.82311 11.0225
thorax 8.94121 1.16117 6.67971
lowerneck -12.0152 -11.3514 -0.699003
upperneck -3.07878 -15.4032 -0.138694
head 1.02618 -7.85452 -0.610881
rclavicle 1.27222e-014 -9.85972e-014
rhumerus 54.1372 -21.9908 -40.7152
rradius 23.7038
rwrist 1.21973
rhand -44.1787 18.739
rfingers 7.12502
rthumb -16.9932 -10.5377
lclavicle 1.27222e-014 -9.85972e-014
lhumerus -36.313 -40.7564 108.435
lradius 78.4148
lwrist -0.471379
lhand -42.7197 24.4728
lfingers 7.12502
lthumb -15.5884 53.8646
rfemur -129.884 -27.1407 23.3285
rtibia 58.0691
rfoot -9.68921 -8.65494
rtoes 10.2981
lfemur -100.183 -16.8918 -14.2635
ltibia 31.2709
lfoot 6.48809 -29.2064
ltoes 14.7563
330
root -1.41755 15.9989 -3.17074 105.363 29.9131 37.5127
lowerback -0.820627 2.11625 9.5877
upperback 8.02894 1.88201 11.0502
thorax 9.06432 1.17899 6.80076
lowerneck -11.9625 -11.3524 -0.612927
upperneck -3.28177 -15.4245 -0.166091
head 0.942073 -7.86979 -0.618325
rclavicle -3.49861e-014 2.06736e-014
rhumerus 54.1099 -22.0036 -40.3619
rradius 23.6276
rwrist 0.958083
rhand -44.1159 18.3174
rfingers 7.12502
rthumb -16.9328 -10.9644
lclavicle -3.49861e-014 2.06736e-014
lhumerus -36.2302 -40.8465 108.517
lradius 78.4148
lwrist -0.533001
lhand -42.799 24.6556
lfingers 7.12502
lthumb -15.6648 54.0414
rfemur -129.926 -27.1254 23.3004
rtibia 58.0039
rfoot -9.83522 -8.48364
rtoes 12.1977
lfemur -100.28 -16.8688 -14.2349
ltibia 31.3834
lfoot 6.48869 -29.1373
ltoes 15.1092
331
root -1.41579 15.9961 -3.17457 105.276 29.8378 37.4289
lowerback -0.932936 2.17717 9.4674
upperback 8.11514 1.93687 11.0797
thorax 9.22055 1.19528 6.92389
lowerneck -11.8903 -11.3814 -0.622809
upperneck -3.59526 -15.4743 -0.0544256
head 0.837601 -7.89784 -0.566553
rclavicle 6.99722e-014 7.95139e-014
rhumerus 54.0794 -22.0406 -39.9673
rradius 23.5916
rwrist 0.552382
rhand -44.0852 18.1034
rfingers 7.12502
rthumb -16.9033 -11.181
lclavicle 6.99722e-014 7.95139e-014
lhumerus -36.1022 -40.9647 108.555
lradius 78.4699
lwrist -0.6297
lhand -42.7447 24.8266
lfingers 7.12502
lthumb -15.6125 54.2165
rfemur -129.929 -27.0887 23.2955
rtibia 57.9613
rfoot -9.88713 -8.34861
rtoes 13.2852
lfemur -100.261 -16.8371 -14.4456
ltibia 31.4985
lfoot 6.7968 -29.1701
ltoes 16.1001
332
root -1.41511 15.9942 -3.17957 105.204 29.7878 37.341
lowerback -0.918523 2.21821 9.46196
upperback 8.10573 1.99358 11.046
thorax 9.19884 1.22301 6.89106
lowerneck -11.9038 -11.3906 -0.676911
upperneck -3.60563 -15.4785 0.0639542
head 0.850376 -7.89761 -0.52542
rclavicle -7.63333e-014 3.49861e-014
rhumerus 54.0521 -22.046 -39.9216
rradius 23.548
rwrist 0.413798
rhand -44.0552 17.9817
rfingers 7.12502
rthumb -16.8743 -11.3051
lclavicle -7.63333e-014 3.49861e-014
lhumerus -36.1895 -41.0388 108.572
lradius 78.5031
lwrist -0.712321
lhand -42.7356 24.6775
lfingers 7.12502
lthumb -15.6037 54.0682
rfemur -129.935 -27.0411 23.2819
rtibia 57.9311
rfoot -9.87941 -8.28374
rtoes 13.0434
lfemur -100.365 -16.8358 -14.1987
ltibia 31.6172
lfoot 6.24859 -29.0466
ltoes 15.3155
333
root -1.41435 15.991 -3.18633 105.144 29.7682 37.2411
lowerback -0.904193 2.24308 9.48604
upperback 8.07293 2.03048 11.0128
thorax 9.15321 1.24323 6.83824
lowerneck -12.1372 -11.359 -0.51914
upperneck -3.29328 -15.4467 -0.17646
head 0.959286 -7.88387 -0.647071
rclavicle 1.27222e-014 3.65764e-014
rhumerus 54.2515 -22.1221 -40.2933
rradius 23.4077
rwrist 0.668229
rhand -44.018 17.8752
rfingers 7.12502
rthumb -16.8385 -11.4148
lclavicle 1.27222e-014 3.65764e-014
lhumerus -36.2943 -41.0418 108.558
lradius 78.5265
lwrist -0.666126
lhand -42.799 24.5833
lfingers 7.12502
lthumb -15.6648 53.9692
rfemur -129.995 -26.9573 23.3595
rtibia 57.9072
rfoot -9.80458 -8.20348
rtoes 11.8768
lfemur -100.584 -16.8456 -13.5525
ltibia 31.7434
lfoot 5.20174 -28.7051
ltoes 13.7791
334
root -1.41217 15.9881 -3.19288 105.126 29.7083 37.1806
lowerback -0.961136 2.26588 9.43836
upperback 8.05842 2.0542 11.0087
thorax 9.16727 1.2508 6.86464
lowerneck -12.4246 -11.3431 -0.349984
upperneck -2.98294 -15.4387 -0.482806
head 1.07094 -7.88453 -0.795183
rclavicle 1.01778e-013 -5.88403e-014
rhumerus 54.4034 -22.1744 -40.3992
rradius 23.3047
rwrist 0.651082
rhand -44.0602 17.815
rfingers 7.12502
rthumb -16.8791 -11.4714
lclavicle 1.01778e-013 -5.88403e-014
lhumerus -36.3072 -41.0547 108.583
lradius 78.5431
lwrist -0.578332
lhand -42.8311 24.7494
lfingers 7.12502
lthumb -15.6957 54.1328
rfemur -130.107 -26.9181 23.4764
rtibia 57.8773
rfoot -9.62184 -8.05489
rtoes 10.6291
lfemur -100.744 -16.8724 -13.2819
ltibia 31.875
lfoot 4.53868 -28.5629
ltoes 12.9157
335
root -1.40971 15.9896 -3.19813 105.139 29.7286 37.1956
lowerback -0.993177 2.28856 9.53477
upperback 8.04667 2.07417 11.012
thorax 9.17777 1.26678 6.81845
lowerneck -12.3974 -11.3519 -0.470097
upperneck -3.082 -15.4365 -0.286773
head 1.05919 -7.87982 -0.714219
rclavicle 3.49861e-014 9.38264e-014
rhumerus 54.4914 -22.2651 -40.5038
rradius 23.2394
rwrist 0.630773
rhand -44.134 17.7268
rfingers 7.12502
rthumb -16.9502 -11.5536
lclavicle 3.49861e-014 9.38264e-014
lhumerus -36.3007 -41.1081 108.612
lradius 78.5375
lwrist -0.572133
lhand -42.7678 24.907
lfingers 7.12502
lthumb -15.6347 54.2952
rfemur -130.178 -26.932 23.6365
rtibia 57.854
rfoot -9.64779 -7.87611
rtoes 11.9255
lfemur -100.828 -16.9056 -13.2105
ltibia 31.9866
lfoot 4.32822 -28.6629
ltoes 12.9035
336
root -1.40797 15.9906 -3.2047 105.089 29.6705 37.1636
lowerback -1.05071 2.32023 9.5471
upperback 8.08573 2.09938 10.9961
thorax 9.25677 1.28016 6.80518
lowerneck -12.2279 -11.3759 -0.657972
upperneck -3.38278 -15.4524 0.000505358
head 0.97033 -7.88433 -0.578547
rclavicle -5.725e-014 1.76521e-013
rhumerus 54.777 -22.5356 -40.9647
rradius 23.12
rwrist 0.917652
rhand -43.9771 17.662
rfingers 7.12502
rthumb -16.7991 -11.6313
lclavicle -5.725e-014 1.76521e-013
lhumerus -36.2146 -41.2036 108.602
lradius 78.5422
lwrist -0.538501
lhand -42.6544 25.0391
lfingers 7.12502
lthumb -15.5256 54.4358
rfemur -130.2 -26.9544 23.6365
rtibia 57.8449
rfoot -9.70379 -7.73028
rtoes 13.0442
lfemur -100.852 -16.9411 -13.1913
ltibia 32.0579
lfoot 4.30548 -28.7179
ltoes 13.5173
337
root -1.40531 15.9869 -3.21157 104.996 29.5232 37.087
lowerback -1.05387 2.32595 9.41709
upperback 8.08797 2.11241 10.9716
thorax 9.25358 1.27777 6.85017
lowerneck -12.2526 -11.3851 -0.664823
upperneck -3.3094 -15.462 -0.0856805
head 0.991779 -7.88969 -0.608288
rclavicle -1.08139e-013 -4.13472e-014
rhumerus 55.0327 -22.6945 -41.3647
rradius 23.0365
rwrist 1.09017
rhand -43.657 17.6101
rfingers 7.12502
rthumb -16.491 -11.709
lclavicle -1.08139e-013 -4.13472e-014
lhumerus -36.2441 -41.2086 108.661
lradius 78.5551
lwrist -0.513888
lhand -42.629 25.2567
lfingers 7.12502
lthumb -15.501 54.6553
rfemur -130.255 -26.9665 23.6064
rtibia 57.84
rfoot -9.63628 -7.53252
rtoes 12.7778
lfemur -100.81 -16.9847 -13.3253
ltibia 32.0955
lfoot 4.10349 -28.7795
ltoes 13.3604
338
root -1.40177 15.9829 -3.21708 104.943 29.52 37.0544
lowerback -0.954001 2.30983 9.44966
upperback 8.02026 2.11455 10.9672
thorax 9.1185 1.28107 6.81137
lowerneck -12.1211 -11.3992 -0.691602
upperneck -3.29051 -15.4764 -0.0216641
head 0.983351 -7.89419 -0.578337
rclavicle 6.36111e-015 6.67916e-014
rhumerus 55.1511 -22.6733 -41.6016
rradius 23.0224
rwrist 0.997742
rhand -43.5475 17.4404
rfingers 7.12502
rthumb -16.3856 -11.8875
lclavicle 6.36111e-015 6.67916e-014
lhumerus -36.4215 -41.1058 108.754
lradius 78.6237
lwrist -0.560623
lhand -42.6431 25.375
lfingers 7.12502
lthumb -15.5146 54.7726
rfemur -130.313 -26.9529 23.7521
rtibia 57.8192
rfoot -9.62444 -7.32247
rtoes 12.8562
lfemur -100.796 -17.006 -13.2959
ltibia 32.1175
lfoot 3.91566 -28.811
ltoes 12.9458
339
root -1.39931 15.9808 -3.22455 104.944 29.5354 36.9857
lowerback -0.966793 2.32793 9.50345
upperback 7.98986 2.13627 10.9598
thorax 9.09402 1.29503 6.77285
lowerneck -11.9526 -11.3889 -0.795061
upperneck -3.49301 -15.4536 0.213072
head 0.916721 -7.87946 -0.473562
rclavicle -3.49861e-014 1.90833e-014
rhumerus 55.3269 -22.7231 -41.8491
rradius 22.9897
rwrist 0.850782
rhand -43.6823 17.3053
rfingers 7.12502
rthumb -16.5154 -12.0119
lclavicle -3.49861e-014 1.90833e-014
lhumerus -36.446 -41.0542 108.741
lradius 78.6882
lwrist -0.625799
lhand -42.6202 25.2884
lfingers 7.12502
lthumb -15.4925 54.6876
rfemur -130.345 -26.9095 23.7872
rtibia 57.7584
rfoot -9.5951 -7.28519
rtoes 13.1216
lfemur -100.881 -16.9772 -13.1569
ltibia 32.1359
lfoot 3.89504 -28.7093
ltoes 13.3226
340
root -1.39933 15.9846 -3.23123 104.888 29.5177 36.8272
lowerback -0.999195 2.37629 9.47356
upperback 8.01908 2.19071 10.9624
thorax 9.14263 1.31832 6.80286
lowerneck -11.9828 -11.3319 -0.5484
upperneck -3.68844 -15.4174 0.0287484
head 0.824114 -7.87049 -0.552458
rclavicle 1.59028e-014 -3.81667e-014
rhumerus 55.5653 -22.826 -42.0718
rradius 22.93
rwrist 0.811953
rhand -43.7934 17.0909
rfingers 7.12502
rthumb -16.6223 -12.2173
lclavicle 1.59028e-014 -3.81667e-014
lhumerus -36.3471 -41.0541 108.693
lradius 78.6898
lwrist -0.690303
lhand -42.6347 25.5031
lfingers 7.12502
lthumb -15.5065 54.9013
rfemur -130.311 -26.7929 23.7251
rtibia 57.6636
rfoot -9.47184 -7.29874
rtoes 13.6841
lfemur -100.959 -16.8941 -13.0179
ltibia 32.153
lfoot 3.74804 -28.5068
ltoes 13.7226
